<svg id="splitsvg" version="1.1" xmlns="http://www.w3.org/2000/svg" xmlns:xlink="http://www.w3.org/1999/xlink" width="1380" height="507"><g id="svgg"><path id="path0" d="M393.689 71.788 C 393.336 73.138,380.986 82.705,380.213 82.227 C 379.864 82.011,379.762 82.108,379.975 82.452 C 380.456 83.232,370.937 90.609,370.109 90.097 C 369.767 89.886,369.646 89.968,369.840 90.282 C 370.315 91.050,365.889 94.546,365.077 94.045 C 364.713 93.820,364.585 93.893,364.784 94.214 C 365.287 95.029,362.593 97.401,361.753 96.882 C 361.367 96.644,361.206 96.688,361.388 96.983 C 361.568 97.273,361.107 98.007,360.366 98.615 C 359.624 99.222,358.207 100.414,357.216 101.264 C 356.226 102.114,355.245 102.809,355.037 102.809 C 354.829 102.809,354.010 103.378,353.218 104.073 C 349.559 107.285,348.736 107.845,348.178 107.500 C 347.849 107.296,347.739 107.389,347.935 107.705 C 348.315 108.321,341.960 113.619,341.365 113.182 C 341.171 113.039,341.126 113.078,341.265 113.269 C 341.675 113.830,339.951 115.274,339.329 114.890 C 339.017 114.697,338.536 115.123,338.259 115.837 C 337.572 117.610,331.626 122.640,330.812 122.137 C 330.424 121.898,330.316 121.983,330.542 122.348 C 331.151 123.334,321.482 129.722,320.647 128.886 C 320.466 128.706,319.855 128.968,319.288 129.469 C 318.722 129.970,316.490 131.824,314.328 133.589 C 312.167 135.354,310.080 137.097,309.690 137.463 C 309.301 137.829,308.503 138.281,307.918 138.466 C 307.332 138.652,306.653 139.490,306.408 140.329 C 305.979 141.801,305.880 142.391,305.701 144.538 C 305.655 145.087,304.417 146.663,302.949 148.040 C 300.406 150.425,298.911 151.307,299.773 149.913 C 300.023 149.508,299.927 149.417,299.516 149.671 C 299.154 149.895,298.995 150.299,299.162 150.569 C 299.567 151.225,292.767 156.851,292.081 156.428 C 291.786 156.245,291.615 156.431,291.700 156.840 C 291.785 157.252,291.478 157.501,291.011 157.397 C 290.548 157.294,290.357 157.399,290.588 157.629 C 291.025 158.067,287.815 161.236,286.935 161.236 C 286.659 161.236,286.514 160.418,286.615 159.419 C 286.753 158.045,286.558 157.555,285.815 157.411 C 285.270 157.306,284.831 157.559,284.831 157.980 C 284.831 158.833,282.885 160.674,281.983 160.674 C 281.659 160.674,281.524 160.884,281.682 161.140 C 281.973 161.611,276.594 167.246,275.574 167.539 C 275.272 167.626,274.983 167.979,274.932 168.325 C 274.724 169.748,267.416 176.264,267.416 175.027 C 267.416 174.858,266.891 175.244,266.249 175.886 C 265.607 176.528,264.725 176.916,264.289 176.749 C 263.848 176.580,263.556 176.747,263.630 177.127 C 263.704 177.502,263.305 177.771,262.743 177.725 C 262.182 177.678,261.845 177.763,261.995 177.913 C 262.462 178.380,260.504 180.298,259.925 179.941 C 259.624 179.754,259.552 179.884,259.765 180.230 C 259.979 180.575,259.661 181.350,259.060 181.951 C 258.459 182.552,257.866 183.509,257.742 184.078 C 257.619 184.647,257.217 185.049,256.849 184.972 C 256.481 184.895,256.180 185.337,256.180 185.955 C 256.180 186.573,255.954 187.079,255.679 187.079 C 255.403 187.079,255.019 187.711,254.825 188.483 C 254.632 189.256,254.107 189.888,253.659 189.888 C 253.168 189.888,252.972 190.220,253.166 190.726 C 253.349 191.204,253.101 191.712,252.586 191.909 C 252.091 192.099,251.685 192.580,251.685 192.978 C 251.685 193.783,250.300 194.495,249.767 193.962 C 249.486 193.681,246.018 193.618,240.371 193.792 C 239.848 193.808,239.484 194.245,239.529 194.803 C 239.572 195.344,239.291 195.723,238.904 195.646 C 238.518 195.569,238.202 195.864,238.202 196.303 C 238.202 197.571,236.308 200.554,235.501 200.558 C 235.096 200.560,234.909 200.794,235.084 201.078 C 235.260 201.362,235.022 201.976,234.556 202.443 C 234.089 202.909,233.708 203.558,233.708 203.884 C 233.708 204.821,229.362 207.461,228.597 206.989 C 228.164 206.721,228.062 206.804,228.317 207.217 C 228.572 207.629,228.284 207.865,227.528 207.865 C 226.871 207.865,226.495 208.119,226.688 208.432 C 227.062 209.036,224.735 210.155,224.003 209.724 C 223.764 209.583,223.637 209.675,223.722 209.930 C 223.900 210.465,221.559 212.945,221.208 212.594 C 221.079 212.465,220.974 212.730,220.974 213.184 C 220.974 215.894,217.824 219.663,215.559 219.663 C 215.279 219.663,214.334 220.232,213.459 220.927 C 210.934 222.933,209.044 224.195,208.649 224.139 C 208.449 224.110,207.980 224.671,207.608 225.386 C 207.235 226.101,206.635 226.622,206.274 226.545 C 205.913 226.468,205.681 226.709,205.758 227.081 C 205.836 227.453,205.520 227.781,205.056 227.809 C 204.593 227.837,204.289 228.203,204.382 228.621 C 204.588 229.549,201.140 233.223,200.459 232.802 C 200.191 232.636,200.042 232.836,200.127 233.245 C 200.211 233.654,199.965 233.926,199.579 233.848 C 199.192 233.771,198.906 233.897,198.943 234.129 C 199.120 235.249,198.820 235.986,198.315 235.674 C 198.006 235.483,197.753 235.736,197.753 236.236 C 197.753 236.736,197.500 236.989,197.191 236.798 C 196.882 236.607,196.629 236.816,196.629 237.263 C 196.629 237.710,195.873 238.673,194.949 239.403 C 194.025 240.133,193.266 241.061,193.264 241.466 C 193.261 241.870,193.032 242.061,192.755 241.890 C 191.870 241.343,191.516 243.387,192.334 244.323 C 194.191 246.446,195.363 249.554,194.242 249.377 C 193.855 249.316,192.599 249.684,191.451 250.195 C 190.302 250.706,188.764 251.124,188.033 251.124 C 187.302 251.124,186.531 251.297,186.319 251.509 C 185.703 252.125,181.855 253.353,180.511 253.362 C 179.834 253.367,179.109 253.647,178.900 253.985 C 178.691 254.324,177.981 254.513,177.322 254.407 C 176.541 254.281,175.504 254.850,174.346 256.039 C 173.368 257.044,172.671 257.865,172.796 257.865 C 172.921 257.865,172.246 259.129,171.295 260.674 C 170.344 262.219,169.335 263.483,169.053 263.483 C 168.770 263.483,168.539 263.810,168.539 264.209 C 168.539 265.269,163.690 269.857,163.013 269.438 C 162.696 269.243,162.254 269.379,162.031 269.741 C 161.777 270.151,161.868 270.248,162.273 269.997 C 162.629 269.777,162.918 269.801,162.914 270.051 C 162.902 270.732,157.760 275.024,157.169 274.846 C 156.888 274.761,156.790 274.905,156.952 275.167 C 157.328 275.775,155.276 277.561,154.776 277.061 C 154.570 276.854,154.485 276.962,154.588 277.301 C 155.018 278.714,147.235 285.834,146.057 285.106 C 145.739 284.909,145.547 285.077,145.632 285.479 C 145.717 285.880,145.236 286.294,144.563 286.397 C 143.890 286.500,143.038 286.948,142.669 287.393 C 142.299 287.838,141.680 288.202,141.292 288.202 C 140.904 288.202,140.263 288.593,139.866 289.071 C 139.470 289.548,138.807 289.809,138.393 289.650 C 137.967 289.486,137.640 289.733,137.640 290.219 C 137.640 290.725,137.374 290.913,136.992 290.677 C 136.596 290.432,136.496 290.522,136.734 290.908 C 137.283 291.796,135.493 295.072,134.721 294.594 C 134.348 294.364,134.254 294.463,134.487 294.841 C 135.064 295.775,133.272 298.875,132.148 298.885 C 131.395 298.892,131.348 299.000,131.937 299.374 C 132.884 299.974,131.294 301.585,128.204 303.156 C 127.060 303.738,126.039 304.403,125.936 304.635 C 125.833 304.867,125.321 305.056,124.797 305.056 C 124.274 305.056,123.412 305.562,122.883 306.180 C 121.863 307.371,120.442 307.754,121.121 306.655 C 121.371 306.250,121.275 306.159,120.864 306.413 C 120.502 306.636,120.342 307.039,120.508 307.308 C 120.674 307.576,120.436 308.005,119.979 308.261 C 119.422 308.573,119.027 310.109,118.778 312.930 C 118.574 315.243,118.121 317.321,117.771 317.548 C 117.345 317.824,117.413 317.969,117.978 317.987 C 118.727 318.010,118.727 318.090,117.978 318.700 C 117.514 319.077,117.051 319.764,116.948 320.225 C 116.683 321.418,115.713 322.472,114.881 322.472 C 114.490 322.472,114.205 322.914,114.248 323.455 C 114.291 323.996,114.010 324.375,113.624 324.298 C 113.237 324.221,112.951 324.347,112.988 324.579 C 113.173 325.749,112.834 326.404,112.045 326.404 C 111.564 326.404,111.313 326.637,111.489 326.921 C 111.664 327.205,110.921 328.378,109.837 329.528 C 108.752 330.677,107.865 331.850,107.865 332.134 C 107.865 332.418,107.612 332.494,107.303 332.303 C 106.994 332.112,106.742 332.365,106.742 332.865 C 106.742 333.365,106.489 333.618,106.180 333.427 C 105.871 333.236,105.618 333.540,105.618 334.103 C 105.618 334.666,104.944 335.629,104.121 336.243 C 103.297 336.857,102.349 337.621,102.014 337.940 C 101.679 338.259,100.520 339.139,99.438 339.896 C 95.752 342.475,91.011 346.942,91.011 347.836 C 91.011 348.099,90.744 348.315,90.416 348.315 C 90.089 348.315,90.002 348.023,90.222 347.666 C 90.473 347.261,90.376 347.170,89.965 347.424 C 89.604 347.648,89.451 348.063,89.626 348.346 C 89.802 348.630,89.400 349.434,88.734 350.133 C 88.068 350.832,87.143 351.971,86.678 352.664 C 86.213 353.356,85.607 353.784,85.332 353.614 C 85.057 353.444,84.831 353.951,84.831 354.742 C 84.831 355.646,84.518 356.180,83.989 356.180 C 83.525 356.180,83.146 356.438,83.146 356.754 C 83.146 357.288,80.453 361.735,79.751 362.360 C 79.577 362.514,78.858 363.590,78.153 364.751 C 77.441 365.922,76.603 366.696,76.270 366.490 C 75.922 366.275,75.832 366.383,76.057 366.747 C 76.271 367.092,75.994 367.847,75.442 368.425 C 74.890 369.003,74.355 369.831,74.253 370.266 C 74.151 370.701,73.879 371.186,73.650 371.343 C 73.420 371.500,73.063 372.088,72.856 372.648 C 72.649 373.208,72.225 373.509,71.914 373.317 C 71.603 373.125,71.348 373.367,71.348 373.854 C 71.348 374.342,70.713 375.748,69.937 376.977 C 68.647 379.021,67.974 379.492,66.672 379.266 C 66.417 379.222,66.351 379.416,66.525 379.698 C 66.913 380.326,65.491 381.596,64.976 381.081 C 64.773 380.878,64.607 380.973,64.607 381.292 C 64.607 381.612,63.551 382.572,62.260 383.426 C 59.545 385.223,57.989 386.727,56.575 388.922 C 56.010 389.801,55.295 390.316,54.945 390.100 C 54.585 389.877,54.478 389.968,54.692 390.315 C 54.897 390.646,54.463 391.633,53.728 392.509 C 52.994 393.384,51.230 396.420,49.808 399.255 C 47.365 404.125,45.364 406.506,44.277 405.834 C 44.010 405.669,43.862 405.781,43.947 406.082 C 44.032 406.383,43.879 406.718,43.607 406.826 C 43.335 406.934,41.969 408.088,40.571 409.390 C 39.173 410.692,37.809 411.621,37.540 411.455 C 37.271 411.288,37.120 411.487,37.205 411.896 C 37.290 412.306,37.053 412.580,36.678 412.507 C 36.302 412.433,36.115 412.686,36.261 413.069 C 36.407 413.451,35.260 415.104,33.712 416.742 C 32.165 418.380,30.899 419.925,30.899 420.175 C 30.899 420.425,30.014 421.568,28.933 422.714 C 27.851 423.861,26.966 425.049,26.966 425.354 C 26.966 425.659,26.713 425.753,26.404 425.562 C 26.096 425.371,25.843 425.624,25.843 426.124 C 25.843 426.624,25.632 426.902,25.375 426.743 C 25.117 426.584,24.906 426.767,24.906 427.149 C 24.906 428.264,22.960 430.919,22.397 430.571 C 22.114 430.397,21.952 430.588,22.037 430.998 C 22.122 431.407,21.856 431.672,21.447 431.587 C 21.038 431.502,20.837 431.650,21.002 431.916 C 21.316 432.425,19.864 434.479,17.275 437.187 C 16.426 438.076,15.730 439.047,15.730 439.345 C 15.730 439.644,15.336 439.888,14.854 439.888 C 14.373 439.888,14.099 440.082,14.245 440.319 C 14.643 440.962,11.475 444.989,10.948 444.512 C 10.698 444.286,10.671 444.409,10.887 444.785 C 11.313 445.527,8.192 449.149,7.108 449.170 C 6.752 449.177,6.541 449.645,6.639 450.209 C 6.745 450.824,6.576 451.088,6.217 450.866 C 5.887 450.662,5.618 450.904,5.618 451.404 C 5.618 451.904,5.365 452.157,5.056 451.966 C 4.747 451.775,4.494 452.140,4.494 452.776 C 4.494 453.412,4.242 453.933,3.933 453.933 C 3.086 453.933,3.258 455.387,4.198 456.167 C 4.859 456.716,5.206 456.672,5.929 455.950 C 6.426 455.452,7.104 455.214,7.435 455.419 C 7.770 455.626,7.877 455.531,7.677 455.205 C 7.477 454.883,8.133 453.989,9.135 453.219 C 10.136 452.449,11.863 450.968,12.973 449.926 C 14.084 448.885,16.421 446.691,18.168 445.050 C 19.915 443.409,21.571 442.206,21.849 442.378 C 22.127 442.550,22.505 442.296,22.690 441.815 C 22.875 441.334,23.287 441.101,23.605 441.298 C 23.924 441.495,24.116 441.415,24.031 441.121 C 23.794 440.300,26.961 437.571,27.654 437.999 C 28.009 438.219,28.103 438.116,27.878 437.752 C 27.661 437.401,28.177 436.688,29.055 436.123 C 29.915 435.570,31.081 434.546,31.646 433.846 C 32.212 433.146,32.907 432.717,33.191 432.893 C 33.475 433.069,33.708 432.826,33.708 432.354 C 33.708 431.785,34.022 431.617,34.643 431.855 C 35.271 432.096,35.444 431.998,35.171 431.556 C 34.928 431.162,35.115 430.899,35.641 430.899 C 36.123 430.899,36.454 430.674,36.376 430.400 C 36.196 429.760,45.291 421.842,46.392 421.681 C 46.848 421.614,47.232 421.322,47.243 421.032 C 47.255 420.743,47.817 420.199,48.492 419.823 C 49.167 419.448,49.513 419.132,49.262 419.121 C 49.010 419.110,50.384 417.724,52.313 416.041 C 54.243 414.358,56.029 413.109,56.282 413.265 C 56.535 413.422,56.742 413.163,56.742 412.691 C 56.742 412.149,57.060 411.955,57.607 412.165 C 58.150 412.373,58.412 412.219,58.309 411.752 C 58.220 411.342,58.462 410.995,58.848 410.981 C 59.235 410.967,59.600 410.702,59.660 410.393 C 59.826 409.537,61.415 407.981,62.338 407.771 C 62.789 407.668,63.658 407.142,64.269 406.601 C 64.880 406.060,65.775 405.614,66.258 405.609 C 67.029 405.602,67.033 405.535,66.292 405.056 C 65.730 404.693,65.684 404.509,66.152 404.503 C 67.179 404.490,67.267 404.430,70.054 401.835 C 71.459 400.527,72.831 399.594,73.102 399.761 C 73.373 399.929,73.596 399.654,73.596 399.150 C 73.596 398.078,74.988 396.524,75.495 397.030 C 75.686 397.222,75.843 396.942,75.843 396.409 C 75.843 395.876,76.096 395.596,76.404 395.787 C 76.713 395.977,76.966 395.802,76.966 395.396 C 76.966 394.526,79.964 391.573,80.848 391.573 C 81.185 391.573,81.461 391.320,81.461 391.011 C 81.461 390.702,81.813 390.449,82.243 390.449 C 82.674 390.449,83.178 390.054,83.363 389.571 C 83.548 389.088,83.955 388.850,84.266 389.042 C 84.577 389.235,84.831 389.124,84.831 388.797 C 84.831 388.470,85.226 388.202,85.707 388.202 C 86.189 388.202,86.427 387.949,86.236 387.640 C 86.045 387.331,86.424 387.079,87.079 387.079 C 87.733 387.079,88.112 386.826,87.921 386.517 C 87.730 386.208,87.941 385.955,88.390 385.955 C 88.839 385.955,89.357 385.560,89.543 385.077 C 89.740 384.564,90.173 384.368,90.586 384.605 C 90.974 384.829,91.105 384.805,90.876 384.552 C 90.647 384.299,90.741 383.753,91.085 383.338 C 91.849 382.417,92.921 382.329,92.362 383.233 C 92.119 383.626,92.207 383.729,92.585 383.496 C 92.929 383.284,93.089 382.797,92.942 382.413 C 92.660 381.679,97.690 377.137,98.492 377.402 C 98.749 377.486,98.826 377.339,98.662 377.074 C 98.260 376.423,102.737 372.361,103.404 372.773 C 103.695 372.953,103.933 372.748,103.933 372.317 C 103.933 371.887,105.174 370.359,106.692 368.922 C 108.209 367.485,109.537 366.116,109.641 365.879 C 110.231 364.545,115.894 360.055,116.631 360.338 C 117.095 360.516,117.332 360.431,117.158 360.150 C 116.790 359.555,119.928 357.865,121.401 357.865 C 121.954 357.865,122.564 357.608,122.758 357.294 C 122.953 356.980,123.386 356.893,123.721 357.100 C 124.079 357.322,124.170 357.216,123.940 356.845 C 123.704 356.462,124.114 356.071,124.977 355.854 C 125.762 355.657,126.404 355.256,126.404 354.962 C 126.404 354.668,126.696 354.608,127.053 354.829 C 127.440 355.068,127.550 354.984,127.325 354.620 C 127.117 354.284,127.584 353.072,128.362 351.927 C 129.139 350.781,129.775 350.146,129.775 350.517 C 129.775 350.887,130.032 351.031,130.346 350.837 C 130.660 350.643,130.784 350.268,130.621 350.004 C 129.635 348.410,134.363 343.861,137.352 343.528 C 139.317 343.309,139.399 343.270,139.060 342.721 C 138.688 342.120,141.735 340.356,142.750 340.584 C 143.107 340.665,143.636 339.972,143.927 339.045 C 145.403 334.331,146.208 332.605,146.766 332.949 C 147.158 333.192,147.252 332.880,147.037 332.056 C 146.855 331.360,146.839 330.443,147.002 330.019 C 147.591 328.485,160.649 317.335,161.371 317.750 C 161.760 317.974,161.891 317.951,161.662 317.698 C 161.433 317.445,161.525 316.901,161.867 316.490 C 162.551 315.665,165.130 316.042,165.914 317.081 C 166.248 317.524,166.452 317.517,166.643 317.054 C 166.789 316.701,167.398 316.540,167.998 316.697 C 168.624 316.860,168.926 317.253,168.706 317.620 C 168.462 318.028,168.631 318.010,169.175 317.570 C 169.828 317.041,170.181 317.035,170.688 317.541 C 171.194 318.048,171.348 318.037,171.348 317.495 C 171.348 317.103,171.638 316.967,171.997 317.188 C 172.416 317.448,172.492 317.341,172.212 316.888 C 171.689 316.042,176.312 311.113,177.146 311.628 C 177.452 311.817,177.559 311.740,177.384 311.457 C 176.886 310.651,178.482 308.818,179.263 309.300 C 179.714 309.579,179.804 309.490,179.526 309.040 C 179.009 308.203,180.818 306.064,181.623 306.561 C 181.938 306.756,182.034 306.653,181.837 306.334 C 181.424 305.667,184.701 301.332,185.456 301.545 C 185.731 301.622,185.925 301.496,185.889 301.264 C 185.712 300.144,186.012 299.407,186.517 299.719 C 186.826 299.910,187.079 299.759,187.079 299.384 C 187.079 298.354,189.890 294.879,190.446 295.223 C 190.713 295.387,191.012 294.950,191.112 294.250 C 191.320 292.779,194.266 291.124,197.054 290.911 C 198.056 290.835,198.876 290.598,198.876 290.385 C 198.876 289.918,201.630 288.969,202.809 289.030 C 203.272 289.054,203.904 288.782,204.213 288.426 C 204.522 288.069,206.039 287.324,207.584 286.770 C 211.331 285.425,211.698 285.089,213.249 281.583 C 213.992 279.902,214.835 278.727,215.156 278.925 C 215.491 279.132,215.730 278.670,215.730 277.814 C 215.730 274.827,220.742 269.436,222.506 270.526 C 222.811 270.715,222.992 270.581,222.907 270.228 C 222.822 269.875,224.276 268.654,226.139 267.515 L 229.524 265.443 229.098 262.945 C 228.668 260.428,228.808 260.026,231.123 257.107 C 231.605 256.500,232.233 256.244,232.634 256.491 C 233.083 256.769,233.175 256.681,232.900 256.236 C 232.647 255.827,233.170 254.899,234.218 253.898 C 235.173 252.984,235.965 252.050,235.976 251.821 C 236.012 251.133,242.092 247.218,242.843 247.400 C 243.226 247.493,243.345 247.461,243.107 247.329 C 242.869 247.198,243.309 246.591,244.084 245.980 C 244.860 245.370,245.789 245.053,246.149 245.275 C 246.518 245.503,246.653 245.436,246.458 245.122 C 246.007 244.392,250.207 240.295,250.828 240.859 C 251.090 241.097,251.159 241.037,250.983 240.724 C 250.496 239.863,252.060 238.020,252.858 238.514 C 253.260 238.762,253.400 238.704,253.195 238.373 C 253.003 238.062,253.486 236.949,254.268 235.898 C 255.050 234.848,256.924 231.966,258.432 229.494 C 259.940 227.022,263.210 222.932,265.699 220.405 C 268.188 217.878,270.225 215.525,270.225 215.176 C 270.225 214.826,270.541 214.722,270.927 214.945 C 271.313 215.167,271.450 215.150,271.230 214.906 C 270.627 214.238,272.416 211.135,273.144 211.585 C 273.519 211.817,273.611 211.716,273.375 211.334 C 272.834 210.458,274.005 208.427,275.053 208.427 C 275.524 208.427,275.746 208.163,275.547 207.841 C 275.347 207.518,275.490 206.886,275.863 206.436 C 276.666 205.469,277.774 205.328,277.194 206.267 C 276.943 206.672,277.040 206.763,277.450 206.509 C 277.812 206.285,277.980 205.895,277.824 205.642 C 277.558 205.212,280.971 202.247,281.731 202.247 C 282.338 202.247,284.831 199.300,284.831 198.582 C 284.831 198.202,285.170 197.610,285.583 197.266 C 285.997 196.923,286.641 195.621,287.015 194.372 C 287.389 193.124,287.933 192.249,288.223 192.429 C 288.514 192.608,288.612 192.392,288.442 191.949 C 287.894 190.522,289.756 186.913,290.886 187.209 C 291.437 187.353,292.227 187.106,292.643 186.661 C 293.059 186.215,293.992 185.964,294.717 186.103 C 295.441 186.241,295.916 186.165,295.773 185.934 C 295.454 185.417,298.176 184.680,298.854 185.099 C 299.123 185.265,299.427 185.169,299.531 184.886 C 299.634 184.604,300.225 184.286,300.843 184.181 C 301.775 184.021,302.134 183.137,302.952 178.987 C 303.957 173.883,304.728 172.203,305.768 172.846 C 306.090 173.045,306.210 172.976,306.035 172.693 C 305.537 171.887,307.134 170.054,307.915 170.536 C 308.356 170.809,308.456 170.726,308.195 170.304 C 307.953 169.912,308.910 168.520,310.563 166.859 C 312.088 165.325,313.938 163.308,314.674 162.377 C 315.947 160.765,317.364 159.956,316.519 161.323 C 316.269 161.728,316.365 161.819,316.776 161.565 C 317.138 161.341,317.305 160.950,317.148 160.695 C 316.991 160.441,317.995 159.700,319.380 159.049 C 322.264 157.693,322.697 157.609,322.137 158.514 C 321.895 158.907,321.983 159.010,322.361 158.777 C 322.704 158.565,322.826 157.978,322.633 157.474 C 322.379 156.812,322.488 156.685,323.025 157.017 C 323.487 157.303,323.634 157.258,323.412 156.900 C 323.216 156.582,324.558 154.205,326.394 151.616 C 328.229 149.028,330.136 146.336,330.631 145.635 C 331.126 144.933,331.765 144.504,332.051 144.681 C 332.337 144.857,332.447 144.673,332.294 144.271 C 331.784 142.927,345.066 130.150,346.973 130.150 C 347.402 130.150,347.642 130.039,347.506 129.903 C 347.259 129.656,347.755 128.940,349.532 126.973 C 350.047 126.403,350.350 125.818,350.205 125.673 C 350.061 125.529,350.714 124.194,351.657 122.708 C 352.599 121.221,353.371 120.349,353.371 120.770 C 353.371 122.019,354.008 121.003,354.174 119.490 C 354.315 118.206,369.722 100.562,370.702 100.562 C 370.911 100.562,371.331 100.076,371.636 99.483 C 371.941 98.889,374.323 96.045,376.929 93.163 C 383.753 85.614,392.690 75.875,394.754 73.737 C 396.402 72.030,396.455 71.857,395.493 71.342 C 394.105 70.599,393.993 70.626,393.689 71.788  M -25 0 L -5 0 L -5 20 L -25 20 Z M 405 0 L 425 0 L 425 20 L 405 20 Z" stroke="none" fill="#000000" fill-rule="evenodd" transform="translate(30,0)"></path></g></svg>