<?xml version="1.0" standalone="no"?>
<svg xmlns="http://www.w3.org/2000/svg" viewBox="0 0 154.874 36" width="154.874" height="36"><g fill="#ff8888" color="#ff8888" transform="translate(0 6) scale(0.4705883)"><svg width="44.0" height="51.0" x="0.0" y="0.0" viewBox="0 0 44 51"><path fill="currentColor" fill-rule="evenodd" d="M21.986 0L44 12.704v25.393L22.029 50.801.014 38.111 0 12.718 21.986 0zM22 7.428L6.43 16.425V34.42l15.599 8.996 15.555-9.01-.014-17.994L22 7.428zm-.001 5.403l10.907 6.302v12.561l-10.907 6.302-10.893-6.288-.015-12.575L22 12.83z"></path></svg></g><path fill="#0b0cac" fill-rule="nonzero" d="M4.39 16.97L0.10 16.97Q0 16.97 0 16.85L0 16.85L0.05 0.36Q0.05 0.26 0.14 0.26L0.14 0.26L4.75 0.26Q6.12 0.26 7.20 0.92Q8.28 1.58 8.90 2.66Q9.53 3.74 9.53 5.02L9.53 5.02Q9.53 6.05 9.06 6.94Q8.59 7.82 7.94 8.38L7.94 8.38Q8.64 9.07 9.02 9.98Q9.41 10.90 9.41 11.90L9.41 11.90Q9.41 13.30 8.74 14.45Q8.06 15.60 6.92 16.28Q5.78 16.97 4.39 16.97L4.39 16.97ZM2.93 3.12L2.93 6.89L4.75 6.89Q5.59 6.89 6.11 6.30Q6.62 5.71 6.62 5.02L6.62 5.02Q6.62 4.25 6.07 3.68Q5.52 3.12 4.75 3.12L4.75 3.12L2.93 3.12ZM2.93 9.79L2.90 14.04L4.39 14.04Q5.26 14.04 5.88 13.40Q6.50 12.77 6.50 11.90L6.50 11.90Q6.50 11.04 5.88 10.42Q5.26 9.79 4.39 9.79L4.39 9.79L2.93 9.79ZM13.97 16.97L11.26 16.97Q11.14 16.97 11.14 16.85L11.14 16.85L11.16 0.36Q11.16 0.26 11.26 0.26L11.26 0.26L13.94 0.26Q14.04 0.26 14.04 0.36L14.04 0.36L14.06 16.85Q14.06 16.97 13.97 16.97L13.97 16.97ZM24.26 16.97L16.51 16.97Q16.42 16.97 16.42 16.85L16.42 16.85L16.44 0.38Q16.44 0.26 16.56 0.26L16.56 0.26L19.22 0.26Q19.34 0.26 19.34 0.38L19.34 0.38L19.32 14.02L24.26 14.02Q24.38 14.02 24.38 14.14L24.38 14.14L24.38 16.85Q24.38 16.97 24.26 16.97L24.26 16.97ZM33.79 16.97L26.04 16.97Q25.94 16.97 25.94 16.85L25.94 16.85L25.97 0.36Q25.97 0.26 26.06 0.26L26.06 0.26L33.77 0.26Q33.86 0.26 33.86 0.38L33.86 0.38L33.86 3.07Q33.86 3.17 33.77 3.17L33.77 3.17L28.85 3.17L28.85 6.91L33.77 6.91Q33.86 6.91 33.86 7.01L33.86 7.01L33.89 9.72Q33.89 9.82 33.79 9.82L33.79 9.82L28.85 9.82L28.85 14.02L33.79 14.02Q33.89 14.02 33.89 14.14L33.89 14.14L33.89 16.87Q33.89 16.97 33.79 16.97L33.79 16.97ZM43.87 16.97L36.12 16.97Q36.02 16.97 36.02 16.85L36.02 16.85L36.05 0.38Q36.05 0.26 36.17 0.26L36.17 0.26L38.83 0.26Q38.95 0.26 38.95 0.38L38.95 0.38L38.93 14.02L43.87 14.02Q43.99 14.02 43.99 14.14L43.99 14.14L43.99 16.85Q43.99 16.97 43.87 16.97L43.87 16.97ZM52.22 17.21L52.22 17.21Q50.93 17.21 49.86 16.55Q48.79 15.89 48.16 14.80Q47.52 13.70 47.52 12.38L47.52 12.38L47.52 11.28Q47.52 11.16 47.64 11.16L47.64 11.16L50.33 11.16Q50.42 11.16 50.42 11.28L50.42 11.28L50.42 12.38Q50.42 13.18 50.95 13.74Q51.48 14.30 52.22 14.30L52.22 14.30Q52.97 14.30 53.50 13.73Q54.02 13.15 54.02 12.38L54.02 12.38Q54.02 11.50 52.87 10.85L52.87 10.85Q52.49 10.63 51.67 10.18Q50.86 9.72 50.14 9.31L50.14 9.31Q48.82 8.54 48.18 7.38Q47.54 6.22 47.54 4.75L47.54 4.75Q47.54 3.41 48.19 2.34Q48.84 1.27 49.91 0.65Q50.98 0.02 52.22 0.02L52.22 0.02Q53.50 0.02 54.56 0.66Q55.63 1.30 56.27 2.36Q56.90 3.43 56.90 4.75L56.90 4.75L56.90 6.72Q56.90 6.82 56.81 6.82L56.81 6.82L54.12 6.82Q54.02 6.82 54.02 6.72L54.02 6.72L54 4.75Q54 3.91 53.47 3.38Q52.94 2.86 52.22 2.86L52.22 2.86Q51.48 2.86 50.95 3.42Q50.42 3.98 50.42 4.75L50.42 4.75Q50.42 5.54 50.76 6.07Q51.10 6.60 51.98 7.08L51.98 7.08Q52.10 7.15 52.45 7.33Q52.80 7.51 53.21 7.74Q53.62 7.97 53.94 8.14Q54.26 8.30 54.34 8.35L54.34 8.35Q55.54 9.02 56.23 10.00Q56.93 10.97 56.93 12.38L56.93 12.38Q56.93 13.75 56.29 14.84Q55.66 15.94 54.59 16.57Q53.52 17.21 52.22 17.21ZM57.31 16.85L57.31 16.85L60.29 0.36Q60.31 0.26 60.41 0.26L60.41 0.26L63.89 0.26Q63.98 0.26 64.01 0.36L64.01 0.36L66.86 16.85Q66.89 16.97 66.77 16.97L66.77 16.97L64.10 16.97Q64.01 16.97 63.98 16.85L63.98 16.85L63.72 15.10L60.46 15.10L60.19 16.85Q60.17 16.97 60.07 16.97L60.07 16.97L57.41 16.97Q57.31 16.97 57.31 16.85ZM62.02 5.78L60.94 12.53L63.24 12.53L62.26 5.78L62.11 4.90L62.02 5.78ZM71.18 16.97L68.47 16.97Q68.38 16.97 68.38 16.85L68.38 16.85L68.40 0.36Q68.40 0.26 68.52 0.26L68.52 0.26L71.18 0.26Q71.30 0.26 71.30 0.36L71.30 0.36L71.28 6.89L74.88 6.89L74.88 0.36Q74.88 0.26 74.98 0.26L74.98 0.26L77.64 0.26Q77.76 0.26 77.76 0.36L77.76 0.36L77.81 16.85Q77.81 16.97 77.69 16.97L77.69 16.97L75 16.97Q74.88 16.97 74.88 16.85L74.88 16.85L74.88 9.79L71.28 9.79L71.28 16.85Q71.28 16.97 71.18 16.97L71.18 16.97ZM82.58 16.97L79.87 16.97Q79.78 16.97 79.78 16.85L79.78 16.85L79.82 0.36Q79.82 0.26 79.92 0.26L79.92 0.26L84.77 0.26Q86.06 0.26 87.16 0.90Q88.25 1.54 88.90 2.60Q89.54 3.67 89.54 5.02L89.54 5.02Q89.54 5.90 89.28 6.61Q89.02 7.32 88.66 7.81Q88.30 8.30 88.01 8.54L88.01 8.54Q89.30 9.98 89.30 11.93L89.30 11.93L89.33 16.85Q89.33 16.97 89.21 16.97L89.21 16.97L86.50 16.97Q86.40 16.97 86.40 16.90L86.40 16.90L86.40 11.93Q86.40 11.06 85.79 10.43Q85.18 9.79 84.29 9.79L84.29 9.79L82.70 9.79L82.68 16.85Q82.68 16.97 82.58 16.97L82.58 16.97ZM82.70 3.14L82.70 6.91L84.77 6.91Q85.51 6.91 86.09 6.36Q86.66 5.81 86.66 5.02L86.66 5.02Q86.66 4.25 86.10 3.70Q85.54 3.14 84.77 3.14L84.77 3.14L82.70 3.14ZM90.53 16.85L90.53 16.85L93.50 0.36Q93.53 0.26 93.62 0.26L93.62 0.26L97.10 0.26Q97.20 0.26 97.22 0.36L97.22 0.36L100.08 16.85Q100.10 16.97 99.98 16.97L99.98 16.97L97.32 16.97Q97.22 16.97 97.20 16.85L97.20 16.85L96.94 15.10L93.67 15.10L93.41 16.85Q93.38 16.97 93.29 16.97L93.29 16.97L90.62 16.97Q90.53 16.97 90.53 16.85ZM95.23 5.78L94.15 12.53L96.46 12.53L95.47 5.78L95.33 4.90L95.23 5.78ZM105.53 17.21L105.53 17.21Q104.23 17.21 103.16 16.55Q102.10 15.89 101.45 14.80Q100.80 13.70 100.80 12.38L100.80 12.38L100.82 4.78Q100.82 3.46 101.46 2.38Q102.10 1.30 103.18 0.65Q104.26 0 105.53 0L105.53 0Q106.82 0 107.88 0.65Q108.94 1.30 109.57 2.38Q110.21 3.46 110.21 4.78L110.21 4.78L110.23 12.38Q110.23 13.70 109.60 14.80Q108.96 15.89 107.89 16.55Q106.82 17.21 105.53 17.21ZM105.53 14.30L105.53 14.30Q106.25 14.30 106.79 13.72Q107.33 13.13 107.33 12.38L107.33 12.38L107.30 4.78Q107.30 3.98 106.80 3.43Q106.30 2.88 105.53 2.88L105.53 2.88Q104.78 2.88 104.26 3.42Q103.73 3.96 103.73 4.78L103.73 4.78L103.73 12.38Q103.73 13.18 104.26 13.74Q104.78 14.30 105.53 14.30ZM116.62 17.21L116.62 17.21Q115.34 17.21 114.26 16.55Q113.18 15.89 112.55 14.78Q111.91 13.68 111.91 12.36L111.91 12.36L111.96 0.36Q111.96 0.26 112.06 0.26L112.06 0.26L114.74 0.26Q114.84 0.26 114.84 0.36L114.84 0.36L114.84 12.36Q114.84 13.18 115.36 13.74Q115.87 14.30 116.62 14.30L116.62 14.30Q117.38 14.30 117.90 13.74Q118.42 13.18 118.42 12.36L118.42 12.36L118.42 0.36Q118.42 0.26 118.51 0.26L118.51 0.26L121.20 0.26Q121.30 0.26 121.30 0.36L121.30 0.36L121.34 12.36Q121.34 13.70 120.71 14.81Q120.07 15.91 119.00 16.56Q117.94 17.21 116.62 17.21ZM126.07 16.97L123.36 16.97Q123.24 16.97 123.24 16.85L123.24 16.85L123.26 0.36Q123.26 0.26 123.36 0.26L123.36 0.26L126.05 0.26Q126.14 0.26 126.14 0.36L126.14 0.36L126.17 16.85Q126.17 16.97 126.07 16.97L126.07 16.97Z" transform="translate(28.706, 9.516)"></path></svg>